PathFileType	4	(x/y/z)	S02_P20_T24
DataRate	CameraRate	NumFrames	NumMarkers	Units	OrigDataRate	OrigDataStartFrame	OrigNumFrames
240	240	8	51	mm	240	221	353
Frame#	Time	Sternum			R.Acromium			L.Acromium			Top.Head			R.ASIS			L.ASIS			R.PSIS			L.PSIS			R.Great.Tro			L.Great.Tro			R.Iliac.Crest			L.Iliac.Crest			V.Sacral			R.Thigh.Upper.Post			R.Thigh.Lower.Ant			R.Thigh.Lower.Post			R.Thigh.Upper.Ant			R.Knee.Lat			R.Knee.Med			R.Shank.Upper.Post			R.Shank.Lower.Ant			R.Shank.Lower.Post			R.Shank.Upper.Ant			R.Ankle.Lat			R.Ankle.Med			R.Heel.Upper			R.Heel.Med			R.Heel.Lat			R.Toe.Lat			R.Toe.Med			R.Toe.Tip			L.Thigh.Upper.Post			L.Thigh.Lower.Ant			L.Thigh.Lower.Post			L.Thigh.Upper.Ant			L.Knee.Lat			L.Knee.Med			L.Shank.Upper.Post			L.Shank.Lower.Ant			L.Shank.Lower.Post			L.Shank.Upper.Ant			L.Ankle.Lat			L.Ankle.Med			L.Heel.Upper			L.Heel.Med			L.Heel.Lat			L.Toe.Lat			L.Toe.Med			L.Toe.Tip			Cervical.Spine			Back			
		X1	Y1	Z1	X2	Y2	Z2	X3	Y3	Z3	X4	Y4	Z4	X5	Y5	Z5	X6	Y6	Z6	X7	Y7	Z7	X8	Y8	Z8	X9	Y9	Z9	X10	Y10	Z10	X11	Y11	Z11	X12	Y12	Z12	X13	Y13	Z13	X14	Y14	Z14	X15	Y15	Z15	X16	Y16	Z16	X17	Y17	Z17	X18	Y18	Z18	X19	Y19	Z19	X20	Y20	Z20	X21	Y21	Z21	X22	Y22	Z22	X23	Y23	Z23	X24	Y24	Z24	X25	Y25	Z25	X26	Y26	Z26	X27	Y27	Z27	X28	Y28	Z28	X29	Y29	Z29	X30	Y30	Z30	X31	Y31	Z31	X32	Y32	Z32	X33	Y33	Z33	X34	Y34	Z34	X35	Y35	Z35	X36	Y36	Z36	X37	Y37	Z37	X38	Y38	Z38	X39	Y39	Z39	X40	Y40	Z40	X41	Y41	Z41	X42	Y42	Z42	X43	Y43	Z43	X44	Y44	Z44	X45	Y45	Z45	X46	Y46	Z46	X47	Y47	Z47	X48	Y48	Z48	X49	Y49	Z49	X50	Y50	Z50	X51	Y51	Z51	

221	0.91667	-108.59	1082.2	339.86	-207.82	1318.7	490.26	-226.51	1325.4	197.14	-148.45	1602.4	339.65	-156.06	903.31	453.99	-135.96	903.33	243.71	-362.62	950.88	376.73	-361.74	954.71	302.98	-250.91	800.2	534.23	-238.13	812.11	143.72	-258.84	951.24	501.54	-255.29	953.46	166.24	-391.11	908.33	332.36	-291.98	594.27	505.62	-259.39	506.75	463.65	-329.7	514.67	482.81	-225.91	587.51	485.09	-337.8	434.78	463.54	-356.68	432.28	319.78	-484.81	266	443.93	-442.39	165.63	421.44	-503.89	195.56	432.27	-420.51	229.33	441.16	-522.63	99.086	414.57	-514.04	114.62	330.37	-587.57	90.344	360.3	-576.38	57.969	332.17	-585.9	58.034	395.65	-425.18	37.348	435.06	-393.7	32.326	327.87	-343.96	56.545	382.43	-162.77	586.09	171.23	-60.233	549.04	187.71	-126.2	507.02	199.47	-106.15	628.4	160.4	-43.161	471.1	199.8	-57.522	468.25	340.99	-81.051	285.74	206.34	10.913	222.09	218.61	-62.002	215.53	224.15	-15.64	292.11	201.62	0.44319	108.81	234.27	16.664	114.24	315.3	-46.565	62.168	272.51	-30.643	43.029	308.61	-33.827	33.217	247.4	128.47	63.045	213	145.88	91.671	318.19	199.22	118.63	268.44	-291.75	1381.4	351.53	-368.03	1129.4	360.07
222	0.92083	-102.66	1080.6	339.58	-202.26	1317.6	489.6	-220.74	1324	196.46	-143.2	1601.4	339.07	-150.26	901.85	454.19	-129.64	901.77	243.7	-356.73	949.61	376.21	-355.68	953.35	302.46	-245.43	799.09	534.23	-231.86	810.64	143.78	-253.26	949.88	501.46	-248.93	951.82	165.75	-385.12	907.05	331.79	-286.67	593.27	505.54	-254.01	505.67	463.81	-324.38	513.65	482.74	-220.58	586.43	485.23	-332.68	433.76	463.54	-351.19	431.24	319.77	-481.73	266.85	444	-440.72	165.88	421.75	-501.77	196.63	432.48	-417.98	229.32	441.39	-521.8	100.09	414.95	-513.13	115.87	330.69	-586.78	92.238	360.64	-575.9	59.901	332.32	-585.46	59.711	395.79	-425.08	37.17	435.07	-393.65	32.295	327.9	-343.87	56.279	382.41	-157.03	584.81	171.48	-54.554	547.62	188.03	-120.59	505.72	199.8	-100.35	627.01	160.55	-37.735	469.6	200.16	-51.706	467.04	341.26	-75.809	284.28	206.91	16.064	220.58	219.33	-56.842	214.08	224.82	-10.407	290.58	202.26	5.6709	107.6	235.03	21.721	112.88	316.13	-41.456	61.296	273.08	-25.672	41.921	309.15	-28.692	32.439	247.88	133.67	61.967	213.91	150.87	90.266	319.23	204.32	117.27	269.66	-286.26	1380.3	350.82	-362.28	1128.1	359.56
223	0.925	-96.706	1079.2	339.29	-196.71	1316.4	488.93	-214.93	1322.7	195.75	-137.95	1600.4	338.47	-144.42	900.46	454.37	-123.3	900.28	243.67	-350.8	948.39	375.69	-349.59	952.05	301.95	-239.88	798	534.23	-225.61	809.25	143.83	-247.63	948.59	501.37	-242.53	950.23	165.25	-379.09	905.81	331.24	-281.23	592.28	505.46	-248.44	504.6	463.98	-318.88	512.62	482.67	-215.09	585.4	485.39	-327.33	432.72	463.57	-345.43	430.15	319.78	-478.47	267.79	444.09	-438.95	166.21	422.11	-499.52	197.81	432.71	-415.32	229.37	441.66	-520.86	101.21	415.38	-512.07	117.24	331.06	-585.85	94.342	361.02	-575.33	62.051	332.5	-584.94	61.594	395.97	-424.96	37	435.08	-393.61	32.276	327.95	-343.78	56.007	382.39	-151.34	583.56	171.77	-48.912	546.22	188.32	-115.01	504.45	200.17	-94.589	625.63	160.7	-32.344	468.11	200.5	-45.777	465.92	341.49	-70.811	282.91	207.49	20.864	219.03	220.07	-52.035	212.7	225.5	-5.414	289.05	202.92	10.348	106.41	235.8	26.246	111.49	316.96	-36.974	60.59	273.66	-21.383	40.921	309.69	-24.263	31.823	248.34	138.2	60.702	214.77	155.27	88.565	320.24	208.89	115.51	270.85	-280.75	1379.2	350.08	-356.52	1126.9	359
224	0.92917	-90.74	1077.8	339	-191.17	1315.3	488.24	-209.08	1321.3	195.01	-132.69	1599.5	337.86	-138.54	899.16	454.53	-116.93	898.85	243.64	-344.84	947.21	375.19	-343.48	950.8	301.45	-234.27	796.93	534.21	-219.36	807.95	143.87	-241.95	947.36	501.27	-236.1	948.7	164.74	-373.02	904.61	330.69	-275.65	591.3	505.37	-242.68	503.55	464.19	-313.18	511.58	482.61	-209.45	584.4	485.56	-321.76	431.67	463.64	-339.41	429.01	319.83	-475.04	268.82	444.2	-437.07	166.62	422.52	-497.11	199.1	432.95	-412.53	229.5	441.97	-519.79	102.45	415.85	-510.83	118.73	331.48	-584.77	96.667	361.45	-574.65	64.435	332.72	-584.3	63.699	396.18	-424.84	36.842	435.09	-393.57	32.272	328	-343.7	55.727	382.36	-145.68	582.35	172.09	-43.309	544.84	188.59	-109.47	503.22	200.57	-88.882	624.29	160.84	-26.987	466.64	200.82	-39.75	464.89	341.68	-66.034	281.64	208.08	25.342	217.44	220.83	-47.553	211.39	226.19	-0.63998	287.51	203.6	14.509	105.26	236.57	30.271	110.08	317.81	-33.076	60.047	274.24	-17.734	40.03	310.2	-20.496	31.368	248.79	142.1	59.272	215.59	159.13	86.593	321.22	212.95	113.39	272.01	-275.23	1378.1	349.29	-350.73	1125.6	358.4
225	0.93333	-84.759	1076.5	338.72	-185.65	1314.3	487.54	-203.2	1320.1	194.24	-127.42	1598.6	337.23	-132.62	897.94	454.65	-110.54	897.49	243.59	-338.84	946.09	374.7	-337.34	949.62	300.97	-228.59	795.89	534.18	-213.12	806.76	143.9	-236.22	946.21	501.16	-229.63	947.24	164.23	-366.91	903.45	330.17	-269.93	590.34	505.27	-236.72	502.53	464.42	-307.29	510.53	482.55	-203.65	583.45	485.76	-315.96	430.61	463.76	-333.11	427.83	319.92	-471.41	269.95	444.34	-435.06	167.13	422.99	-494.54	200.51	433.22	-409.59	229.71	442.32	-518.59	103.83	416.37	-509.38	120.35	331.97	-583.52	99.228	361.94	-573.83	67.066	332.98	-583.54	66.042	396.42	-424.7	36.702	435.12	-393.53	32.288	328.06	-343.63	55.438	382.32	-140.06	581.18	172.43	-37.749	543.5	188.82	-103.96	502.02	200.99	-83.224	622.98	160.98	-21.661	465.21	201.11	-33.646	463.93	341.82	-61.454	280.46	208.66	29.528	215.83	221.59	-43.365	210.16	226.87	3.9387	286	204.29	18.194	104.15	237.35	33.836	108.67	318.65	-29.718	59.661	274.83	-14.674	39.249	310.7	-17.337	31.065	249.22	145.43	57.704	216.36	162.49	84.384	322.16	216.55	110.94	273.13	-269.69	1377.1	348.46	-344.93	1124.5	357.76
226	0.9375	-78.766	1075.2	338.44	-180.15	1313.3	486.83	-197.29	1318.9	193.44	-122.15	1597.8	336.58	-126.66	896.81	454.74	-104.14	896.22	243.54	-332.82	945.01	374.24	-331.18	948.51	300.51	-222.85	794.88	534.14	-206.89	805.68	143.91	-230.44	945.15	501.04	-223.13	945.86	163.71	-360.75	902.34	329.66	-264.05	589.4	505.17	-230.54	501.53	464.69	-301.2	509.47	482.5	-197.68	582.56	485.98	-309.91	429.55	463.92	-326.53	426.6	320.05	-467.57	271.18	444.52	-432.9	167.74	423.52	-491.78	202.04	433.51	-406.48	230	442.73	-517.23	105.35	416.94	-507.7	122.09	332.51	-582.07	102.03	362.48	-572.87	69.958	333.28	-582.64	68.638	396.71	-424.53	36.585	435.16	-393.5	32.328	328.13	-343.56	55.139	382.29	-134.5	580.06	172.79	-32.231	542.2	189.02	-98.489	500.87	201.42	-77.615	621.71	161.1	-16.364	463.82	201.38	-27.482	463.07	341.94	-57.047	279.4	209.23	33.455	214.23	222.37	-39.438	209.03	227.53	8.3466	284.51	204.99	21.447	103.09	238.11	36.981	107.27	319.48	-26.847	59.42	275.4	-12.15	38.577	311.17	-14.73	30.904	249.62	148.23	56.029	217.07	165.39	81.981	323.07	219.72	108.21	274.2	-264.13	1376.1	347.58	-339.1	1123.4	357.08
227	0.94167	-72.765	1074.1	338.17	-174.66	1312.4	486.12	-191.34	1317.7	192.62	-116.87	1597.1	335.92	-120.66	895.79	454.79	-97.721	895.04	243.47	-326.77	944	373.8	-325	947.48	300.07	-217.04	793.9	534.09	-200.66	804.71	143.9	-224.61	944.17	500.91	-216.61	944.58	163.2	-354.57	901.29	329.18	-258.01	588.48	505.08	-224.15	500.56	465	-294.9	508.4	482.47	-191.54	581.71	486.23	-303.62	428.48	464.15	-319.66	425.33	320.24	-463.51	272.5	444.73	-430.59	168.46	424.12	-488.82	203.7	433.84	-403.2	230.38	443.2	-515.7	107.02	417.57	-505.77	123.97	333.13	-580.4	105.1	363.08	-571.73	73.125	333.63	-581.57	71.502	397.05	-424.34	36.499	435.22	-393.46	32.399	328.21	-343.48	54.827	382.25	-128.97	579	173.15	-26.757	540.94	189.18	-93.062	499.78	201.87	-72.053	620.5	161.21	-11.092	462.48	201.62	-21.282	462.28	342.01	-52.787	278.46	209.78	37.156	212.66	223.14	-35.736	208	228.18	12.609	283.08	205.69	24.313	102.1	238.87	39.745	105.89	320.29	-24.412	59.312	275.97	-10.101	38.01	311.62	-12.612	30.871	250	150.56	54.279	217.73	167.89	79.428	323.93	222.51	105.27	275.22	-258.56	1375.2	346.67	-333.26	1122.4	356.35
228	0.94583	-66.758	1073.1	337.9	-169.2	1311.6	485.41	-185.36	1316.6	191.77	-111.58	1596.4	335.24	-114.64	894.88	454.8	-91.303	893.96	243.39	-320.69	943.05	373.38	-318.82	946.52	299.66	-211.17	792.95	534.03	-194.43	803.86	143.87	-218.72	943.29	500.78	-210.07	943.41	162.69	-348.35	900.29	328.72	-251.81	587.58	505	-217.54	499.62	465.35	-288.38	507.33	482.45	-185.22	580.93	486.5	-297.07	427.42	464.45	-312.51	424.01	320.49	-459.2	273.94	444.99	-428.1	169.3	424.79	-485.63	205.49	434.21	-399.71	230.86	443.72	-513.98	108.84	418.25	-503.57	125.99	333.82	-578.49	108.42	363.75	-570.4	76.579	334.04	-580.32	74.648	397.44	-424.12	36.451	435.29	-393.41	32.508	328.31	-343.41	54.503	382.21	-123.49	578.02	173.52	-21.328	539.74	189.29	-87.677	498.76	202.32	-66.537	619.35	161.29	-5.8383	461.22	201.84	-15.067	461.59	342.06	-48.648	277.65	210.3	40.664	211.13	223.91	-32.225	207.09	228.79	16.749	281.71	206.38	26.836	101.17	239.6	42.171	104.56	321.07	-22.36	59.322	276.52	-8.4691	37.546	312.04	-10.922	30.952	250.35	152.48	52.49	218.33	170.03	76.777	324.75	224.95	102.17	276.19	-252.98	1374.4	345.73	-327.41	1121.4	355.58
